Coordinates
version=1
nRows=12
nColumns=24
inDegrees=yes

Units are S.I. units (second, meters, Newtons, ...)
Angles are in degrees.

endheader
time	pelvis_tilt	pelvis_list	pelvis_rotation	pelvis_tx	pelvis_ty	pelvis_tz	hip_flexion_r	hip_adduction_r	hip_rotation_r	knee_angle_r	ankle_angle_r	subtalar_angle_r	mtp_angle_r	hip_flexion_l	hip_adduction_l	hip_rotation_l	knee_angle_l	ankle_angle_l	subtalar_angle_l	mtp_angle_l	lumbar_extension	lumbar_bending	lumbar_rotation
      0.88766667	     -0.87991310	     -2.32730244	     -2.89349125	     -0.18880725	      1.05782871	      0.34769525	     -5.81021401	      6.68424272	     -1.26344585	    -14.00709767	     12.34725826	     -6.06714122	     -0.54357548	     23.26591911	     -0.48541933	     -6.90932679	     -7.09352113	      6.68248343	     -0.20534949	     -1.25646990	      4.33297989	      6.29593511	      0.73038492
      0.89183333	     -0.84953616	     -2.31028859	     -2.86780568	     -0.18284276	      1.05723558	      0.34748792	     -5.93547210	      6.62959517	     -1.39136828	    -14.53672394	     12.48187203	     -5.89370474	     -0.54423837	     23.10813832	     -0.35739463	     -6.93251509	     -6.82398260	      6.62850672	      0.32896742	     -1.36147636	      4.36829517	      6.33432292	      0.73587734
      0.89600000	     -0.85621307	     -2.34635299	     -2.91521153	     -0.17711543	      1.05658246	      0.34738223	     -5.96622932	      6.62807949	     -1.40342614	    -15.15330771	     12.44991391	     -5.90384996	     -0.54390145	     23.00276266	     -0.31781571	     -6.86027846	     -6.65863087	      6.62638948	      0.43086835	     -1.37384084	      4.38922583	      6.34208099	      0.72882551
      0.90016667	     -0.85088707	     -2.36150935	     -2.96495689	     -0.17130806	      1.05598117	      0.34727380	     -5.98828837	      6.59442198	     -1.44654294	    -15.81951530	     12.41918197	     -5.89354497	     -0.54218931	     22.87615476	     -0.25672796	     -6.76641050	     -6.56529986	      6.59257484	      0.56668846	     -1.38468206	      4.42019849	      6.35313552	      0.72559945
      0.90433333	     -0.86601138	     -2.31869328	     -3.00303923	     -0.16526863	      1.05539254	      0.34706573	     -5.97336016	      6.48100211	     -1.59049457	    -16.53053112	     12.40919351	     -5.76452541	     -0.53416747	     22.74421323	     -0.11951609	     -6.62433986	     -6.50542051	      6.48990700	      0.84785446	     -1.40934580	      4.40773884	      6.38252884	      0.73095932
      0.90850000	     -0.81272522	     -2.35749950	     -3.03491640	     -0.15953708	      1.05487750	      0.34704129	     -5.98781092	      6.47402499	     -1.65144854	    -17.30718505	     12.35771081	     -5.70537428	     -0.52937551	     22.58589282	     -0.09214537	     -6.51616975	     -6.58897460	      6.43318581	      0.97420405	     -1.41734807	      4.47345362	      6.34904552	      0.74212193
      0.91266667	     -0.72790984	     -2.31705135	     -3.00634105	     -0.15351723	      1.05444545	      0.34670573	     -6.01956484	      6.34246836	     -1.95775530	    -18.13488274	     12.42565241	     -4.97768148	     -0.46929087	     22.35678699	      0.07135725	     -6.29660635	     -6.66553914	      6.26979041	      1.41190731	     -1.48879051	      4.40920134	      6.36777768	      0.80258035
      0.91683333	     -0.67659151	     -2.32653119	     -3.07434994	     -0.14769725	      1.05398875	      0.34672775	     -5.97225654	      6.28373725	     -2.02733755	    -19.03280927	     12.33861413	     -4.96638222	     -0.46340544	     22.17519205	      0.11615430	     -6.18729229	     -6.83037293	      6.21454155	      1.48430373	     -1.49335045	      4.44592066	      6.31822165	      0.80927137
      0.92100000	     -0.64744564	     -2.27996801	     -3.08202263	     -0.14169431	      1.05352648	      0.34641795	     -5.86632861	      6.12838195	     -2.33453622	    -19.99305855	     12.12270584	     -4.46984711	     -0.40187700	     21.99433125	      0.27166062	     -5.94602784	     -6.98611384	      5.91545273	      1.58778645	     -1.52647850	      4.36427911	      6.28985133	      0.86583438
      0.92516667	     -0.60346231	     -2.23191041	     -3.18339970	     -0.13574143	      1.05314483	      0.34638366	     -5.74073908	      5.97292564	     -2.46820374	    -21.03081908	     11.99964487	     -4.39138383	     -0.38301381	     21.77809701	      0.37614266	     -5.80536802	     -7.16533244	      5.82481771	      1.63882953	     -1.53126709	      4.35799940	      6.24820804	      0.87393815
      0.92933333	     -0.51828051	     -2.17724933	     -3.21691273	     -0.12975913	      1.05282740	      0.34607814	     -5.62588951	      5.78060537	     -2.75113856	    -22.11441436	     11.72301041	     -3.70470914	     -0.25933924	     21.50415639	      0.53558878	     -5.48994007	     -7.32558921	      5.43868000	      1.40392855	     -1.55086253	      4.36921744	      6.21803182	      0.95872671
      0.93350000	     -0.45127683	     -2.11028137	     -3.26694640	     -0.12384596	      1.05250434	      0.34579413	     -5.44100516	      5.56731253	     -3.04106084	    -23.29499721	     11.55626506	     -3.28243528	     -0.02185750	     21.25268409	      0.70170193	     -5.21443618	     -7.51887018	      5.10501737	      0.91558555	     -1.55597323	      4.30410765	      6.13608729	      1.04059395
